<svg width="146.000000" height="39.759277" viewBox="0 0 146 39.7593" fill="none" xmlns="http://www.w3.org/2000/svg" xmlns:xlink="http://www.w3.org/1999/xlink">
	<desc>
			Created with Pixso.
	</desc>
	<defs>
		<clipPath id="clip126_317">
			<rect id="Ресурс 21 1" width="146.000000" height="39.759285" fill="white" fill-opacity="0"/>
		</clipPath>
	</defs>
	<rect id="Ресурс 21 1" width="146.000000" height="39.759285" fill="#FFFFFF" fill-opacity="0"/>
	<g clip-path="url(#clip126_317)">
		<path id="by NAPA" d="M5.15625 36.375Q5.15625 37.5859 4.59961 38.3208Q4.04297 39.0557 3.10547 39.0557Q2.10449 39.0557 1.55762 38.3477L1.51367 38.958L0.683594 38.958L0.683594 31.458L1.58691 31.458L1.58691 34.2559Q2.13379 33.5771 3.0957 33.5771Q4.05762 33.5771 4.60693 34.3047Q5.15625 35.0322 5.15625 36.2969L5.15625 36.375ZM4.25293 36.2725Q4.25293 35.3496 3.89648 34.8467Q3.54004 34.3438 2.87109 34.3438Q1.97754 34.3438 1.58691 35.1738L1.58691 37.459Q2.00195 38.2891 2.88086 38.2891Q3.53027 38.2891 3.8916 37.7861Q4.25293 37.2832 4.25293 36.2725ZM7.96875 37.6348L9.19922 33.6748L10.166 33.6748L8.04199 39.7734Q7.54883 41.0918 6.47461 41.0918L6.30371 41.0771L5.9668 41.0137L5.9668 40.2812L6.21094 40.3008Q6.66992 40.3008 6.92627 40.1152Q7.18262 39.9297 7.34863 39.4365L7.54883 38.8994L5.66406 33.6748L6.65039 33.6748L7.96875 37.6348ZM19.0527 38.958L18.1104 38.958L14.5312 33.4795L14.5312 38.958L13.5889 38.958L13.5889 31.8486L14.5312 31.8486L18.1201 37.3516L18.1201 31.8486L19.0527 31.8486L19.0527 38.958ZM24.7314 37.1025L21.7529 37.1025L21.084 38.958L20.1172 38.958L22.832 31.8486L23.6523 31.8486L26.3721 38.958L25.4102 38.958L24.7314 37.1025ZM22.0361 36.3311L24.4531 36.3311L23.2422 33.0059L22.0361 36.3311ZM28.2666 36.1748L28.2666 38.958L27.3291 38.958L27.3291 31.8486L29.9512 31.8486Q31.1182 31.8486 31.7798 32.4443Q32.4414 33.04 32.4414 34.0215Q32.4414 35.0566 31.7944 35.6157Q31.1475 36.1748 29.9414 36.1748L28.2666 36.1748ZM28.2666 35.4082L29.9512 35.4082Q30.7031 35.4082 31.1035 35.0542Q31.5039 34.7002 31.5039 34.0312Q31.5039 33.3965 31.1035 33.0156Q30.7031 32.6348 30.0049 32.6201L28.2666 32.6201L28.2666 35.4082ZM36.8896 37.1025L33.9111 37.1025L33.2422 38.958L32.2754 38.958L34.9902 31.8486L35.8105 31.8486L38.5303 38.958L37.5684 38.958L36.8896 37.1025ZM34.1943 36.3311L36.6113 36.3311L35.4004 33.0059L34.1943 36.3311Z" fill="#AFAFAF" fill-opacity="1.000000" fill-rule="evenodd"/>
		<path id="Vector" d="M50.4895 27.9824L55.823 39.0547L54.5891 39.0547L52.7913 35.4106L47.8555 35.4106L46.0732 39.0547L44.8003 39.0547L50.2012 27.9824L50.4895 27.9824ZM50.3467 30.3354L48.3853 34.3462L52.2952 34.3462L50.3467 30.3354Z" fill="#AFAFAF" fill-opacity="1.000000" fill-rule="nonzero"/>
		<path id="Vector" d="M57.6338 27.9824L58.7769 27.9824L58.7769 34.6685C58.7649 35.1641 58.7805 35.6597 58.8237 36.1533C58.8672 36.543 59.0071 36.9165 59.2314 37.2427C59.4768 37.5674 59.8066 37.8228 60.1875 37.9824C60.5923 38.1743 61.0359 38.2759 61.4863 38.2798C61.8625 38.2798 62.2341 38.1997 62.575 38.0454C62.9116 37.896 63.209 37.6748 63.4453 37.3989C63.6907 37.103 63.8679 36.7598 63.9648 36.3921C64.0664 35.8198 64.1057 35.2388 64.0818 34.6587L64.0818 27.9824L65.2065 27.9824L65.2065 34.6685C65.2307 35.4785 65.1301 36.2876 64.9077 37.0693C64.6868 37.7061 64.2686 38.2612 63.7102 38.6597C63.0879 39.1201 62.3213 39.3604 61.5383 39.3389C60.699 39.3623 59.8721 39.1382 59.1665 38.6973C58.5322 38.3027 58.0635 37.7026 57.8442 37.0039C57.7039 36.5732 57.6338 35.7935 57.6338 34.6685L57.6338 27.9824Z" fill="#AFAFAF" fill-opacity="1.000000" fill-rule="nonzero"/>
		<path id="Vector" d="M66.8848 29.0669L66.8848 27.9824L73.1509 27.9824L73.1509 29.0669L70.6023 29.0669L70.6023 39.0596L69.4358 39.0596L69.4358 29.0669L66.8848 29.0669Z" fill="#AFAFAF" fill-opacity="1.000000" fill-rule="nonzero"/>
		<path id="Vector" d="M88.1172 39.0601L89.7539 27.9878L89.9409 27.9878L94.5884 37.0771L99.1946 27.9878L99.3762 27.9878L101.023 39.0601L99.9011 39.0601L98.771 31.1382L94.7288 39.0601L94.4353 39.0601L90.3435 31.0781L89.2212 39.0601L88.1172 39.0601Z" fill="#AFAFAF" fill-opacity="1.000000" fill-rule="nonzero"/>
		<path id="Vector" d="M115.971 29.0669L115.971 27.9824L122.237 27.9824L122.237 29.0669L119.689 29.0669L119.689 39.0596L118.522 39.0596L118.522 29.0669L115.971 29.0669Z" fill="#AFAFAF" fill-opacity="1.000000" fill-rule="nonzero"/>
		<path id="Vector" d="M123.723 27.9824L124.866 27.9824L124.866 39.0547L123.723 39.0547L123.723 27.9824Z" fill="#AFAFAF" fill-opacity="1.000000" fill-rule="nonzero"/>
		<path id="Vector" d="M126.615 27.9824L127.859 27.9824L131.649 36.5381L135.5 27.9824L136.744 27.9824L131.769 39.0547L131.509 39.0547L126.615 27.9824Z" fill="#AFAFAF" fill-opacity="1.000000" fill-rule="nonzero"/>
		<path id="Vector" d="M138.671 27.9824L145.221 27.9824L145.221 29.0669L139.814 29.0669L139.814 32.5396L145.179 32.5396L145.179 33.6216L139.814 33.6216L139.814 37.9751L145.179 37.9751L145.179 39.0596L138.671 39.0596L138.671 27.9824Z" fill="#AFAFAF" fill-opacity="1.000000" fill-rule="nonzero"/>
		<path id="Vector" d="M80.3442 27.9321C79.2026 27.9121 78.0808 28.2217 77.1216 28.8218C76.1624 29.4219 75.4094 30.2847 74.9585 31.3008C74.5076 32.3169 74.3792 33.4399 74.5898 34.5269C74.8005 35.6143 75.3403 36.6157 76.1409 37.4043C76.9414 38.1929 77.9663 38.7329 79.0847 38.9551C80.2031 39.1772 81.3647 39.0723 82.4211 38.6523C83.4775 38.2329 84.3811 37.5181 85.0166 36.5996C85.6521 35.6807 85.9907 34.5991 85.9893 33.4932C86.0012 32.0312 85.4133 30.624 84.3547 29.5811C83.2964 28.5386 81.8538 27.9453 80.3442 27.9321ZM83.2461 32.8467L80.1936 38.2017C80.1851 38.2158 80.1716 38.2271 80.1558 38.2334C80.1399 38.2397 80.1223 38.2412 80.1057 38.2368C80.0894 38.2324 80.0745 38.2231 80.0642 38.21C80.0537 38.1968 80.0481 38.1807 80.0481 38.1636L80.0298 34.4746L77.5073 34.4746C77.4934 34.4736 77.4802 34.4697 77.4685 34.4624C77.4568 34.4551 77.447 34.4453 77.4404 34.4336C77.4336 34.4214 77.4302 34.4082 77.4299 34.395C77.4299 34.3813 77.4333 34.3682 77.4397 34.3564L80.5571 28.8003C80.5649 28.7842 80.5786 28.771 80.5955 28.7637C80.6121 28.7559 80.6311 28.7549 80.6489 28.7593C80.6667 28.7642 80.6821 28.7749 80.6924 28.79C80.7029 28.8047 80.7073 28.8228 80.7053 28.8403L80.7261 32.731L83.1733 32.731C83.1865 32.731 83.1992 32.7344 83.2107 32.7407C83.2224 32.7466 83.2322 32.7554 83.2393 32.7661C83.2463 32.7769 83.2507 32.7891 83.252 32.8018C83.2532 32.8145 83.2512 32.8271 83.2461 32.8389L83.2461 32.8467Z" fill="#AFAFAF" fill-opacity="1.000000" fill-rule="nonzero"/>
		<path id="Vector" d="M0 19.6279L0 0.480469L4.10986 0.480469C7.06616 0.480469 9.21191 0.710938 10.5474 1.17236C12.3994 1.77344 13.9854 2.96729 15.0442 4.55713C16.125 6.1626 16.6646 8.07568 16.6626 10.2969C16.7019 12.0654 16.2593 13.8125 15.3794 15.3623C14.6172 16.7305 13.4585 17.853 12.0464 18.5913C10.6799 19.2822 8.76514 19.6279 6.30249 19.6279L0 19.6279ZM1.89648 17.8184L4.17993 17.8184C6.91284 17.8184 8.80859 17.6509 9.8667 17.3154C11.2979 16.8887 12.5354 16.0005 13.3738 14.7988C14.2258 13.5811 14.6519 12.0913 14.6519 10.3296C14.6519 8.48438 14.1904 6.90674 13.2673 5.59619C12.3467 4.28906 10.9812 3.33594 9.40942 2.90381C8.17993 2.53955 6.14478 2.35693 3.30444 2.35498L1.90674 2.35498L1.89648 17.8184Z" fill="#AFAFAF" fill-opacity="1.000000" fill-rule="nonzero"/>
		<path id="Vector" d="M32.4966 14.9321L34.0813 15.7402C33.6323 16.6362 33.0217 17.4478 32.2783 18.1357C31.6099 18.7354 30.8296 19.2061 29.9792 19.5225C29.0537 19.8516 28.0735 20.0132 27.0879 19.998C24.7012 19.998 22.835 19.2432 21.4893 17.7329C20.186 16.3154 19.4714 14.4805 19.4839 12.582C19.4651 10.8384 20.0679 9.1416 21.1907 7.77832C22.635 5.98828 24.5679 5.09424 26.989 5.0957C29.4829 5.0957 31.4746 6.01172 32.9641 7.84375C34.0242 9.13721 34.5627 10.751 34.5801 12.6851L21.4089 12.6851C21.4434 14.3311 21.9856 15.6797 23.0352 16.7314C23.5344 17.2441 24.1392 17.6494 24.8105 17.9214C25.4817 18.1934 26.2046 18.3252 26.9319 18.3096C27.6699 18.311 28.4023 18.1865 29.0959 17.9419C29.7527 17.7153 30.3611 17.374 30.8911 16.9355C31.5269 16.3496 32.0681 15.6743 32.4966 14.9321ZM32.4966 11.1177C32.3059 10.2744 31.9321 9.47998 31.4001 8.78711C30.8867 8.18164 30.2349 7.7002 29.4961 7.38037C28.72 7.0293 27.874 6.84717 27.0176 6.84717C25.6533 6.82227 24.3303 7.30176 23.3184 8.18848C22.5649 8.84082 21.9951 9.81738 21.6089 11.1177L32.4966 11.1177Z" fill="#AFAFAF" fill-opacity="1.000000" fill-rule="nonzero"/>
		<path id="Vector" d="M36.6897 5.46826L38.6926 5.46826L43.6001 15.7856L48.4502 5.46826L50.4661 5.46826L43.7742 19.6279L43.4233 19.6279L36.6897 5.46826Z" fill="#AFAFAF" fill-opacity="1.000000" fill-rule="nonzero"/>
		<path id="Vector" d="M65.6401 14.9321L67.2249 15.7402C66.7759 16.6362 66.1653 17.4478 65.4221 18.1357C64.7551 18.7349 63.9766 19.2051 63.1282 19.5225C62.2026 19.8516 61.2224 20.0132 60.2366 19.998C57.8501 19.998 55.9839 19.2432 54.6382 17.7329C53.3293 16.3179 52.6091 14.4824 52.6172 12.582C52.5984 10.8384 53.2012 9.1416 54.324 7.77832C55.7683 5.98828 57.7012 5.09424 60.1223 5.0957C62.6162 5.0957 64.6079 6.01172 66.0974 7.84375C67.1575 9.13721 67.696 10.751 67.7134 12.6851L54.5552 12.6851C54.5881 14.3311 55.1301 15.6797 56.1814 16.7314C56.6807 17.2441 57.2856 17.6494 57.9568 17.9214C58.6282 18.1934 59.3508 18.3252 60.0781 18.3096C60.8201 18.3096 61.5564 18.1826 62.2527 17.9346C62.9094 17.708 63.5178 17.3667 64.0479 16.9277C64.6782 16.3433 65.2151 15.6709 65.6401 14.9321ZM65.6401 11.1177C65.4495 10.2744 65.0757 9.47998 64.5439 8.78711C64.0305 8.18164 63.3787 7.7002 62.6396 7.38037C61.8599 7.02734 61.0093 6.84521 60.1484 6.84717C58.7839 6.82227 57.4612 7.30176 56.449 8.18848C55.6956 8.84082 55.1257 9.81738 54.7395 11.1177L65.6401 11.1177Z" fill="#AFAFAF" fill-opacity="1.000000" fill-rule="nonzero"/>
		<path id="Vector" d="M70.9346 0L72.8181 0L72.8181 19.6279L70.9346 19.6279L70.9346 0Z" fill="#AFAFAF" fill-opacity="1.000000" fill-rule="nonzero"/>
		<path id="Vector" d="M83.6511 5.10352C84.7068 5.07861 85.7551 5.27832 86.7227 5.6875C87.6902 6.09717 88.5535 6.70703 89.2522 7.47363C90.5774 8.8623 91.3003 10.6914 91.2708 12.582C91.2891 14.5161 90.522 16.3794 89.1353 17.771C87.7134 19.2505 85.8845 19.9902 83.6484 19.9902C81.4126 19.9902 79.5793 19.2505 78.1489 17.771C76.7637 16.3789 75.9978 14.5156 76.0161 12.582C75.9868 10.6929 76.7095 8.86523 78.0344 7.479C78.7346 6.70898 79.6003 6.09766 80.5706 5.68701C81.541 5.27686 82.5925 5.07764 83.6511 5.10352ZM83.6511 6.88721C82.895 6.87744 82.1448 7.02051 81.4492 7.30811C80.7534 7.59521 80.1274 8.02051 79.6113 8.55566C79.0642 9.09082 78.634 9.72705 78.3459 10.4263C78.0581 11.126 77.9187 11.8745 77.9358 12.6274C77.9326 13.6323 78.2012 14.6206 78.7151 15.4937C79.1985 16.3496 79.9182 17.0591 80.7935 17.542C81.6721 18.0156 82.6611 18.2642 83.6667 18.2642C84.6724 18.2642 85.6611 18.0156 86.54 17.542C87.4146 17.0581 88.134 16.3491 88.6182 15.4937C89.1321 14.6206 89.4009 13.6323 89.3977 12.6274C89.4082 11.8711 89.2607 11.1201 88.9639 10.4204C88.667 9.7207 88.2268 9.08643 87.6699 8.55566C87.1558 8.02344 86.5332 7.6001 85.8413 7.31299C85.1497 7.02588 84.4038 6.88086 83.6511 6.88721Z" fill="#AFAFAF" fill-opacity="1.000000" fill-rule="nonzero"/>
		<path id="Vector" d="M94.7778 5.46826L96.6614 5.46826L96.6614 8.07275C97.3308 7.14697 98.2129 6.38477 99.2383 5.8457C100.237 5.34277 101.348 5.08789 102.473 5.10303C103.468 5.08984 104.455 5.27637 105.373 5.65039C106.29 6.02441 107.118 6.57861 107.803 7.27734C108.52 7.95898 109.085 8.77441 109.466 9.67383C109.847 10.5737 110.035 11.5391 110.02 12.5117C110.038 13.4941 109.852 14.4702 109.473 15.3813C109.093 16.293 108.528 17.1206 107.811 17.8159C106.733 18.8965 105.332 19.6206 103.805 19.8857C102.278 20.1509 100.704 19.9438 99.3059 19.2935C98.2798 18.7856 97.3779 18.0708 96.6614 17.1973L96.6614 24.8145L94.7778 24.8145L94.7778 5.46826ZM102.312 6.85986C101.545 6.84375 100.784 6.98291 100.076 7.26709C99.3679 7.55176 98.7288 7.97607 98.1992 8.51318C97.6501 9.0542 97.2197 9.69678 96.9331 10.4028C96.6465 11.1089 96.5098 11.8638 96.5315 12.6221C96.5149 13.6348 96.771 14.6338 97.2744 15.521C97.7729 16.3823 98.5122 17.0894 99.4072 17.562C100.299 18.0566 101.31 18.3169 102.338 18.3169C103.344 18.3223 104.332 18.061 105.195 17.562C106.088 17.0508 106.822 16.3164 107.32 15.4355C107.836 14.5649 108.107 13.5781 108.107 12.5742C108.107 11.5703 107.836 10.584 107.32 9.71338C106.828 8.84326 106.101 8.11914 105.218 7.6167C104.335 7.11426 103.328 6.85254 102.304 6.85986L102.312 6.85986Z" fill="#AFAFAF" fill-opacity="1.000000" fill-rule="nonzero"/>
		<path id="Vector" d="M125.838 14.9321L127.425 15.7402C126.975 16.6357 126.365 17.4468 125.622 18.1357C124.953 18.7354 124.172 19.2061 123.321 19.5225C122.395 19.8516 121.415 20.0132 120.429 19.998C118.044 19.998 116.179 19.2432 114.833 17.7329C113.524 16.3179 112.805 14.4819 112.815 12.582C112.796 10.8379 113.4 9.14062 114.524 7.77832C115.969 5.98828 117.902 5.09424 120.323 5.0957C122.813 5.0957 124.805 6.01172 126.298 7.84375C127.356 9.13721 127.894 10.751 127.911 12.6851L114.75 12.6851C114.787 14.3311 115.33 15.6797 116.379 16.7314C116.878 17.2441 117.483 17.6494 118.155 17.9214C118.826 18.1934 119.549 18.3252 120.276 18.3096C121.017 18.3096 121.752 18.1826 122.448 17.9346C123.105 17.7075 123.714 17.3662 124.245 16.9277C124.876 16.3433 125.413 15.6709 125.838 14.9321ZM125.838 11.1177C125.649 10.2734 125.276 9.479 124.742 8.78711C124.228 8.18164 123.576 7.7002 122.837 7.38037C122.058 7.02783 121.209 6.84521 120.349 6.84717C118.983 6.8208 117.657 7.30078 116.644 8.18848C115.891 8.84082 115.322 9.81738 114.937 11.1177L125.838 11.1177Z" fill="#AFAFAF" fill-opacity="1.000000" fill-rule="nonzero"/>
		<path id="Vector" d="M146.013 0L146.013 19.6279L144.158 19.6279L144.158 17.1973C143.438 18.0723 142.533 18.7871 141.503 19.2935C140.102 19.9434 138.526 20.1504 136.997 19.8853C135.468 19.6206 134.063 18.8965 132.982 17.8164C132.266 17.1206 131.702 16.2925 131.325 15.3809C130.947 14.4697 130.763 13.4937 130.784 12.5117C130.77 11.5386 130.96 10.5728 131.343 9.67285C131.725 8.77344 132.293 7.95801 133.011 7.27734C133.698 6.57861 134.526 6.0249 135.444 5.65088C136.363 5.27637 137.351 5.09033 138.347 5.10352C139.479 5.0874 140.598 5.34229 141.604 5.8457C142.627 6.38281 143.505 7.14551 144.166 8.07275L144.166 0L146.013 0ZM138.492 6.85986C137.469 6.85352 136.463 7.11475 135.581 7.61621C134.698 8.11768 133.972 8.84033 133.478 9.7085C132.962 10.5791 132.69 11.5654 132.69 12.5693C132.69 13.5737 132.962 14.5601 133.478 15.4307C133.978 16.3125 134.714 17.0469 135.609 17.5571C136.473 18.0552 137.461 18.3164 138.466 18.312C139.493 18.3125 140.503 18.0522 141.394 17.5571C142.286 17.082 143.023 16.3755 143.522 15.5161C144.025 14.6289 144.281 13.6299 144.265 12.6172C144.286 11.8589 144.149 11.1035 143.862 10.3975C143.575 9.69141 143.144 9.04883 142.594 8.50781C142.065 7.97363 141.427 7.55127 140.721 7.26758C140.015 6.98389 139.256 6.84521 138.492 6.85986Z" fill="#AFAFAF" fill-opacity="1.000000" fill-rule="nonzero"/>
		<path id="Vector" d="M114.735 33.521C114.735 36.5967 112.161 39.0898 108.986 39.0898C105.811 39.0898 103.237 36.5967 103.237 33.521C103.237 30.4453 105.811 27.9521 108.986 27.9521C112.161 27.9521 114.735 30.4453 114.735 33.521Z" fill="#AFAFAF" fill-opacity="1.000000" fill-rule="evenodd"/>
	</g>
</svg>
