<svg width="160.000000" height="122.000000" viewBox="0 0 160 122" fill="none" xmlns="http://www.w3.org/2000/svg" xmlns:xlink="http://www.w3.org/1999/xlink">
	<desc>
			Created with Pixso.
	</desc>
	<defs/>
	<rect id="Rectangle 180" y="12.000000" width="5.000000" height="5.000000" fill="#04FF14" fill-opacity="1.000000"/>
	<path id="Winning Attitude" d="M32.8711 8.80078L29.1602 20L26.9531 20L24.1836 11.7109L21.3672 20L19.1445 20L15.4336 8.80078L17.5938 8.80078L20.375 17.3125L23.2734 8.80078L25.1914 8.80078L28.0234 17.3594L30.8867 8.80078L32.8711 8.80078ZM34.4565 11.457L36.4565 11.457L36.4565 20L34.4565 20L34.4565 11.457ZM35.4643 10.0469Q34.9213 10.0469 34.5542 9.70312Q34.187 9.35938 34.187 8.84766Q34.187 8.33594 34.5542 7.99219Q34.9213 7.64844 35.4643 7.64844Q36.0073 7.64844 36.3745 7.97656Q36.7456 8.30469 36.7456 8.80078Q36.7456 9.32812 36.3862 9.6875Q36.0268 10.0469 35.4643 10.0469ZM43.9282 11.3594Q45.5453 11.3594 46.518 12.3047Q47.4946 13.2461 47.4946 15.1055L47.4946 20L45.4946 20L45.4946 15.3594Q45.4946 14.2383 44.9672 13.6719Q44.4399 13.1055 43.4633 13.1055Q42.3618 13.1055 41.7211 13.7695Q41.0805 14.4336 41.0805 15.6797L41.0805 20L39.0805 20L39.0805 11.457L40.9828 11.457L40.9828 12.5586Q41.4789 11.9688 42.2289 11.6641Q42.9828 11.3594 43.9282 11.3594ZM54.8882 11.3594Q56.5053 11.3594 57.478 12.3047Q58.4546 13.2461 58.4546 15.1055L58.4546 20L56.4546 20L56.4546 15.3594Q56.4546 14.2383 55.9272 13.6719Q55.3999 13.1055 54.4233 13.1055Q53.3218 13.1055 52.6811 13.7695Q52.0405 14.4336 52.0405 15.6797L52.0405 20L50.0405 20L50.0405 11.457L51.9428 11.457L51.9428 12.5586Q52.4389 11.9688 53.1889 11.6641Q53.9428 11.3594 54.8882 11.3594ZM61.0005 11.457L63.0005 11.457L63.0005 20L61.0005 20L61.0005 11.457ZM62.0083 10.0469Q61.4653 10.0469 61.0982 9.70312Q60.731 9.35938 60.731 8.84766Q60.731 8.33594 61.0982 7.99219Q61.4653 7.64844 62.0083 7.64844Q62.5513 7.64844 62.9185 7.97656Q63.2896 8.30469 63.2896 8.80078Q63.2896 9.32812 62.9302 9.6875Q62.5708 10.0469 62.0083 10.0469ZM70.4722 11.3594Q72.0893 11.3594 73.062 12.3047Q74.0386 13.2461 74.0386 15.1055L74.0386 20L72.0386 20L72.0386 15.3594Q72.0386 14.2383 71.5112 13.6719Q70.9839 13.1055 70.0073 13.1055Q68.9058 13.1055 68.2651 13.7695Q67.6245 14.4336 67.6245 15.6797L67.6245 20L65.6245 20L65.6245 11.457L67.5268 11.457L67.5268 12.5586Q68.0229 11.9688 68.7729 11.6641Q69.5268 11.3594 70.4722 11.3594ZM85.145 11.457L85.145 18.7031Q85.145 23.2148 80.5356 23.2148Q79.3051 23.2148 78.1997 22.9023Q77.0942 22.5938 76.3754 22L77.2739 20.4961Q77.8325 20.9609 78.6879 21.2383Q79.5434 21.5195 80.4223 21.5195Q81.8325 21.5195 82.4887 20.8789Q83.145 20.2383 83.145 18.9297L83.145 18.4805Q82.6333 19.0391 81.895 19.3281Q81.1606 19.6172 80.2817 19.6172Q79.0629 19.6172 78.0786 19.0977Q77.0942 18.5742 76.5278 17.6328Q75.9614 16.6875 75.9614 15.4727Q75.9614 14.2578 76.5278 13.3203Q77.0942 12.3828 78.0786 11.8711Q79.0629 11.3594 80.2817 11.3594Q81.2075 11.3594 81.9653 11.6641Q82.727 11.9688 83.2387 12.5938L83.2387 11.457L85.145 11.457ZM80.5825 17.9219Q81.7192 17.9219 82.4458 17.2422Q83.1762 16.5586 83.1762 15.4727Q83.1762 14.3984 82.4458 13.7266Q81.7192 13.0547 80.5825 13.0547Q79.4301 13.0547 78.7036 13.7266Q77.977 14.3984 77.977 15.4727Q77.977 16.5586 78.7036 17.2422Q79.4301 17.9219 80.5825 17.9219ZM99.6415 17.4062L94.04 17.4062L92.9345 20L90.7939 20L95.8329 8.80078L97.8798 8.80078L102.935 20L100.759 20L99.6415 17.4062ZM98.9501 15.7773L96.8408 10.8789L94.7431 15.7773L98.9501 15.7773ZM109.225 19.5352Q108.874 19.8242 108.37 19.9688Q107.866 20.1133 107.303 20.1133Q105.897 20.1133 105.128 19.3789Q104.362 18.6406 104.362 17.2305L104.362 13.1211L102.952 13.1211L102.952 11.5195L104.362 11.5195L104.362 9.56641L106.362 9.56641L106.362 11.5195L108.647 11.5195L108.647 13.1211L106.362 13.1211L106.362 17.1836Q106.362 17.8086 106.663 18.1367Q106.967 18.4648 107.546 18.4648Q108.217 18.4648 108.663 18.1133L109.225 19.5352ZM115.801 19.5352Q115.45 19.8242 114.946 19.9688Q114.442 20.1133 113.879 20.1133Q112.473 20.1133 111.704 19.3789Q110.938 18.6406 110.938 17.2305L110.938 13.1211L109.528 13.1211L109.528 11.5195L110.938 11.5195L110.938 9.56641L112.938 9.56641L112.938 11.5195L115.223 11.5195L115.223 13.1211L112.938 13.1211L112.938 17.1836Q112.938 17.8086 113.239 18.1367Q113.543 18.4648 114.122 18.4648Q114.793 18.4648 115.239 18.1133L115.801 19.5352ZM117.449 11.457L119.449 11.457L119.449 20L117.449 20L117.449 11.457ZM118.456 10.0469Q117.913 10.0469 117.546 9.70312Q117.179 9.35938 117.179 8.84766Q117.179 8.33594 117.546 7.99219Q117.913 7.64844 118.456 7.64844Q118.999 7.64844 119.366 7.97656Q119.738 8.30469 119.738 8.80078Q119.738 9.32812 119.378 9.6875Q119.019 10.0469 118.456 10.0469ZM127.209 19.5352Q126.858 19.8242 126.354 19.9688Q125.85 20.1133 125.287 20.1133Q123.881 20.1133 123.112 19.3789Q122.346 18.6406 122.346 17.2305L122.346 13.1211L120.936 13.1211L120.936 11.5195L122.346 11.5195L122.346 9.56641L124.346 9.56641L124.346 11.5195L126.631 11.5195L126.631 13.1211L124.346 13.1211L124.346 17.1836Q124.346 17.8086 124.647 18.1367Q124.951 18.4648 125.53 18.4648Q126.201 18.4648 126.647 18.1133L127.209 19.5352ZM137.126 11.457L137.126 20L135.224 20L135.224 18.9102Q134.743 19.4883 134.024 19.8008Q133.306 20.1133 132.474 20.1133Q130.759 20.1133 129.774 19.1602Q128.79 18.207 128.79 16.3359L128.79 11.457L130.79 11.457L130.79 16.0625Q130.79 17.2148 131.31 17.7852Q131.833 18.3516 132.79 18.3516Q133.864 18.3516 134.497 17.6875Q135.13 17.0234 135.13 15.7773L135.13 11.457L137.126 11.457ZM148.12 8.12891L148.12 20L146.202 20L146.202 18.8945Q145.706 19.5039 144.975 19.8086Q144.249 20.1133 143.37 20.1133Q142.135 20.1133 141.151 19.5703Q140.167 19.0234 139.608 18.0234Q139.049 17.0234 139.049 15.7266Q139.049 14.4336 139.608 13.4414Q140.167 12.4492 141.151 11.9062Q142.135 11.3594 143.37 11.3594Q144.217 11.3594 144.92 11.6484Q145.624 11.9375 146.12 12.5117L146.12 8.12891L148.12 8.12891ZM143.608 18.3984Q144.327 18.3984 144.901 18.0703Q145.479 17.7422 145.815 17.1367Q146.151 16.5273 146.151 15.7266Q146.151 14.9297 145.815 14.3203Q145.479 13.7109 144.901 13.3828Q144.327 13.0547 143.608 13.0547Q142.889 13.0547 142.311 13.3828Q141.737 13.7109 141.401 14.3203Q141.065 14.9297 141.065 15.7266Q141.065 16.5273 141.401 17.1367Q141.737 17.7422 142.311 18.0703Q142.889 18.3984 143.608 18.3984ZM158.776 15.7773Q158.776 15.9844 158.745 16.3672L152.041 16.3672Q152.217 17.3125 152.959 17.8633Q153.705 18.4141 154.807 18.4141Q156.217 18.4141 157.127 17.4883L158.202 18.7188Q157.623 19.4062 156.745 19.7617Q155.866 20.1133 154.76 20.1133Q153.354 20.1133 152.28 19.5547Q151.209 18.9922 150.623 17.9922Q150.041 16.9922 150.041 15.7266Q150.041 14.4805 150.608 13.4805Q151.174 12.4805 152.182 11.9219Q153.194 11.3594 154.455 11.3594Q155.705 11.3594 156.686 11.9141Q157.67 12.4648 158.221 13.4648Q158.776 14.4648 158.776 15.7773ZM154.455 12.9609Q153.495 12.9609 152.83 13.5312Q152.166 14.0977 152.026 15.0391L156.873 15.0391Q156.745 14.1133 156.088 13.5391Q155.432 12.9609 154.455 12.9609Z" fill="#F3F3F3" fill-opacity="1.000000" fill-rule="evenodd"/>
	<rect id="Rectangle 180" y="43.000000" width="5.000000" height="5.000000" fill="#04FF14" fill-opacity="1.000000"/>
	<path id="Communication" d="M21.6875 51.1602Q19.9922 51.1602 18.625 50.418Q17.2578 49.6719 16.4805 48.3594Q15.7031 47.0469 15.7031 45.3984Q15.7031 43.7539 16.4883 42.4414Q17.2734 41.1289 18.6406 40.3867Q20.0078 39.6406 21.7031 39.6406Q23.0781 39.6406 24.2148 40.1211Q25.3516 40.6016 26.1367 41.5117L24.793 42.7773Q23.5742 41.4648 21.8008 41.4648Q20.6484 41.4648 19.7344 41.9688Q18.8242 42.4727 18.3125 43.3711Q17.8008 44.2656 17.8008 45.3984Q17.8008 46.5352 18.3125 47.4336Q18.8242 48.3281 19.7344 48.832Q20.6484 49.3359 21.8008 49.3359Q23.5742 49.3359 24.793 48.0078L26.1367 49.2891Q25.3516 50.1992 24.207 50.6797Q23.0625 51.1602 21.6875 51.1602ZM31.4643 51.1133Q30.1675 51.1133 29.1284 50.5547Q28.0893 49.9922 27.5034 48.9922Q26.9214 47.9922 26.9214 46.7266Q26.9214 45.4648 27.5034 44.4727Q28.0893 43.4805 29.1284 42.9219Q30.1675 42.3594 31.4643 42.3594Q32.7768 42.3594 33.8159 42.9219Q34.855 43.4805 35.437 44.4727Q36.0229 45.4648 36.0229 46.7266Q36.0229 47.9922 35.437 48.9922Q34.855 49.9922 33.8159 50.5547Q32.7768 51.1133 31.4643 51.1133ZM31.4643 49.3984Q32.5698 49.3984 33.2886 48.6641Q34.0073 47.9297 34.0073 46.7266Q34.0073 45.5273 33.2886 44.793Q32.5698 44.0547 31.4643 44.0547Q30.3589 44.0547 29.6479 44.793Q28.937 45.5273 28.937 46.7266Q28.937 47.9297 29.6479 48.6641Q30.3589 49.3984 31.4643 49.3984ZM48.7297 42.3594Q50.3429 42.3594 51.2882 43.2969Q52.2336 44.2305 52.2336 46.1055L52.2336 51L50.2336 51L50.2336 46.3594Q50.2336 45.2383 49.7375 44.6719Q49.2414 44.1055 48.3117 44.1055Q47.3039 44.1055 46.6945 44.7695Q46.089 45.4336 46.089 46.6641L46.089 51L44.089 51L44.089 46.3594Q44.089 45.2383 43.5929 44.6719Q43.0968 44.1055 42.1672 44.1055Q41.1437 44.1055 40.5422 44.7617Q39.9445 45.4141 39.9445 46.6641L39.9445 51L37.9445 51L37.9445 42.457L39.8468 42.457L39.8468 43.543Q40.3273 42.9688 41.0461 42.6641Q41.7687 42.3594 42.6476 42.3594Q43.6086 42.3594 44.3507 42.7188Q45.0968 43.0781 45.5265 43.7852Q46.0578 43.1133 46.8898 42.7383Q47.7218 42.3594 48.7297 42.3594ZM65.5777 42.3594Q67.1909 42.3594 68.1363 43.2969Q69.0816 44.2305 69.0816 46.1055L69.0816 51L67.0816 51L67.0816 46.3594Q67.0816 45.2383 66.5855 44.6719Q66.0894 44.1055 65.1597 44.1055Q64.1519 44.1055 63.5425 44.7695Q62.937 45.4336 62.937 46.6641L62.937 51L60.937 51L60.937 46.3594Q60.937 45.2383 60.4409 44.6719Q59.9448 44.1055 59.0152 44.1055Q57.9917 44.1055 57.3902 44.7617Q56.7925 45.4141 56.7925 46.6641L56.7925 51L54.7925 51L54.7925 42.457L56.6948 42.457L56.6948 43.543Q57.1753 42.9688 57.8941 42.6641Q58.6167 42.3594 59.4956 42.3594Q60.4566 42.3594 61.1988 42.7188Q61.9448 43.0781 62.3745 43.7852Q62.9058 43.1133 63.7378 42.7383Q64.5698 42.3594 65.5777 42.3594ZM79.91 42.457L79.91 51L78.0077 51L78.0077 49.9102Q77.5272 50.4883 76.8085 50.8008Q76.0897 51.1133 75.2577 51.1133Q73.5428 51.1133 72.5585 50.1602Q71.5741 49.207 71.5741 47.3359L71.5741 42.457L73.5741 42.457L73.5741 47.0625Q73.5741 48.2148 74.0936 48.7852Q74.6171 49.3516 75.5741 49.3516Q76.6483 49.3516 77.2811 48.6875Q77.9139 48.0234 77.9139 46.7773L77.9139 42.457L79.91 42.457ZM87.3842 42.3594Q89.0014 42.3594 89.974 43.3047Q90.9506 44.2461 90.9506 46.1055L90.9506 51L88.9506 51L88.9506 46.3594Q88.9506 45.2383 88.4232 44.6719Q87.8959 44.1055 86.9193 44.1055Q85.8178 44.1055 85.1771 44.7695Q84.5365 45.4336 84.5365 46.6797L84.5365 51L82.5365 51L82.5365 42.457L84.4389 42.457L84.4389 43.5586Q84.9349 42.9688 85.6849 42.6641Q86.4389 42.3594 87.3842 42.3594ZM93.4965 42.457L95.4965 42.457L95.4965 51L93.4965 51L93.4965 42.457ZM94.5043 41.0469Q93.9613 41.0469 93.5942 40.7031Q93.227 40.3594 93.227 39.8477Q93.227 39.3359 93.5942 38.9922Q93.9613 38.6484 94.5043 38.6484Q95.0473 38.6484 95.4145 38.9766Q95.7856 39.3047 95.7856 39.8008Q95.7856 40.3281 95.4262 40.6875Q95.0668 41.0469 94.5043 41.0469ZM102.038 51.1133Q100.71 51.1133 99.6557 50.5547Q98.601 49.9922 98.0072 48.9922Q97.4174 47.9922 97.4174 46.7266Q97.4174 45.4648 98.0072 44.4727Q98.601 43.4805 99.6479 42.9219Q100.695 42.3594 102.038 42.3594Q103.304 42.3594 104.253 42.8711Q105.206 43.3828 105.687 44.3438L104.152 45.2383Q103.785 44.6484 103.23 44.3516Q102.679 44.0547 102.023 44.0547Q100.906 44.0547 100.167 44.7852Q99.433 45.5117 99.433 46.7266Q99.433 47.9453 100.16 48.6719Q100.886 49.3984 102.023 49.3984Q102.679 49.3984 103.23 49.1055Q103.785 48.8086 104.152 48.2148L105.687 49.1133Q105.191 50.0703 104.238 50.5938Q103.288 51.1133 102.038 51.1133ZM110.678 42.3594Q112.569 42.3594 113.569 43.2656Q114.569 44.168 114.569 45.9922L114.569 51L112.678 51L112.678 49.9609Q112.311 50.5195 111.631 50.8164Q110.952 51.1133 109.991 51.1133Q109.034 51.1133 108.311 50.7852Q107.592 50.457 107.198 49.875Q106.807 49.2891 106.807 48.5508Q106.807 47.3984 107.663 46.7031Q108.518 46.0078 110.362 46.0078L112.569 46.0078L112.569 45.8789Q112.569 44.9844 112.03 44.5039Q111.495 44.0234 110.44 44.0234Q109.721 44.0234 109.022 44.25Q108.327 44.4727 107.846 44.8711L107.065 43.4141Q107.737 42.9023 108.678 42.6328Q109.624 42.3594 110.678 42.3594ZM110.409 49.6562Q111.159 49.6562 111.741 49.3125Q112.327 48.9688 112.569 48.3281L112.569 47.3359L110.502 47.3359Q108.776 47.3359 108.776 48.4727Q108.776 49.0156 109.206 49.3359Q109.639 49.6562 110.409 49.6562ZM122.265 50.5352Q121.914 50.8242 121.41 50.9688Q120.906 51.1133 120.343 51.1133Q118.937 51.1133 118.168 50.3789Q117.402 49.6406 117.402 48.2305L117.402 44.1211L115.992 44.1211L115.992 42.5195L117.402 42.5195L117.402 40.5664L119.402 40.5664L119.402 42.5195L121.687 42.5195L121.687 44.1211L119.402 44.1211L119.402 48.1836Q119.402 48.8086 119.703 49.1367Q120.007 49.4648 120.586 49.4648Q121.257 49.4648 121.703 49.1133L122.265 50.5352ZM123.913 42.457L125.913 42.457L125.913 51L123.913 51L123.913 42.457ZM124.92 41.0469Q124.377 41.0469 124.01 40.7031Q123.643 40.3594 123.643 39.8477Q123.643 39.3359 124.01 38.9922Q124.377 38.6484 124.92 38.6484Q125.463 38.6484 125.83 38.9766Q126.202 39.3047 126.202 39.8008Q126.202 40.3281 125.842 40.6875Q125.483 41.0469 124.92 41.0469ZM132.376 51.1133Q131.079 51.1133 130.04 50.5547Q129.001 49.9922 128.415 48.9922Q127.833 47.9922 127.833 46.7266Q127.833 45.4648 128.415 44.4727Q129.001 43.4805 130.04 42.9219Q131.079 42.3594 132.376 42.3594Q133.689 42.3594 134.728 42.9219Q135.767 43.4805 136.349 44.4727Q136.935 45.4648 136.935 46.7266Q136.935 47.9922 136.349 48.9922Q135.767 49.9922 134.728 50.5547Q133.689 51.1133 132.376 51.1133ZM132.376 49.3984Q133.482 49.3984 134.201 48.6641Q134.919 47.9297 134.919 46.7266Q134.919 45.5273 134.201 44.793Q133.482 44.0547 132.376 44.0547Q131.271 44.0547 130.56 44.793Q129.849 45.5273 129.849 46.7266Q129.849 47.9297 130.56 48.6641Q131.271 49.3984 132.376 49.3984ZM143.704 42.3594Q145.321 42.3594 146.294 43.3047Q147.271 44.2461 147.271 46.1055L147.271 51L145.271 51L145.271 46.3594Q145.271 45.2383 144.743 44.6719Q144.216 44.1055 143.239 44.1055Q142.138 44.1055 141.497 44.7695Q140.857 45.4336 140.857 46.6797L140.857 51L138.857 51L138.857 42.457L140.759 42.457L140.759 43.5586Q141.255 42.9688 142.005 42.6641Q142.759 42.3594 143.704 42.3594Z" fill="#F3F3F3" fill-opacity="1.000000" fill-rule="evenodd"/>
	<rect id="Rectangle 180" y="74.000000" width="5.000000" height="5.000000" fill="#04FF14" fill-opacity="1.000000"/>
	<path id="Development" d="M16.5039 70.8008L21.3984 70.8008Q23.1914 70.8008 24.582 71.4961Q25.9766 72.1914 26.7422 73.4648Q27.5117 74.7344 27.5117 76.3984Q27.5117 78.0625 26.7422 79.3359Q25.9766 80.6094 24.582 81.3047Q23.1914 82 21.3984 82L16.5039 82L16.5039 70.8008ZM21.3047 80.2383Q22.5352 80.2383 23.4688 79.7695Q24.4062 79.2969 24.9102 78.4258Q25.4141 77.5508 25.4141 76.3984Q25.4141 75.2461 24.9102 74.375Q24.4062 73.5039 23.4688 73.0312Q22.5352 72.5586 21.3047 72.5586L18.5859 72.5586L18.5859 80.2383L21.3047 80.2383ZM37.5597 77.7773Q37.5597 77.9844 37.5285 78.3672L30.8254 78.3672Q31.0012 79.3125 31.7433 79.8633Q32.4894 80.4141 33.591 80.4141Q35.0012 80.4141 35.9113 79.4883L36.9855 80.7188Q36.4074 81.4062 35.5285 81.7617Q34.6496 82.1133 33.5441 82.1133Q32.1379 82.1133 31.0637 81.5547Q29.9933 80.9922 29.4074 79.9922Q28.8254 78.9922 28.8254 77.7266Q28.8254 76.4805 29.3918 75.4805Q29.9582 74.4805 30.966 73.9219Q31.9777 73.3594 33.2394 73.3594Q34.4894 73.3594 35.4699 73.9141Q36.4543 74.4648 37.0051 75.4648Q37.5597 76.4648 37.5597 77.7773ZM33.2394 74.9609Q32.2785 74.9609 31.6144 75.5312Q30.9504 76.0977 30.8097 77.0391L35.6574 77.0391Q35.5285 76.1133 34.8722 75.5391Q34.216 74.9609 33.2394 74.9609ZM47.3205 73.457L43.6564 82L41.5939 82L37.9299 73.457L40.008 73.457L42.6643 79.793L45.3986 73.457L47.3205 73.457ZM56.3598 77.7773Q56.3598 77.9844 56.3285 78.3672L49.6254 78.3672Q49.8012 79.3125 50.5433 79.8633Q51.2894 80.4141 52.391 80.4141Q53.8012 80.4141 54.7113 79.4883L55.7855 80.7188Q55.2074 81.4062 54.3285 81.7617Q53.4496 82.1133 52.3441 82.1133Q50.9379 82.1133 49.8637 81.5547Q48.7933 80.9922 48.2074 79.9922Q47.6254 78.9922 47.6254 77.7266Q47.6254 76.4805 48.1918 75.4805Q48.7582 74.4805 49.766 73.9219Q50.7777 73.3594 52.0394 73.3594Q53.2894 73.3594 54.2699 73.9141Q55.2543 74.4648 55.8051 75.4648Q56.3598 76.4648 56.3598 77.7773ZM52.0394 74.9609Q51.0785 74.9609 50.4144 75.5312Q49.7504 76.0977 49.6098 77.0391L54.4574 77.0391Q54.3285 76.1133 53.6723 75.5391Q53.016 74.9609 52.0394 74.9609ZM58.2805 70.1289L60.2805 70.1289L60.2805 82L58.2805 82L58.2805 70.1289ZM66.7443 82.1133Q65.4475 82.1133 64.4084 81.5547Q63.3693 80.9922 62.7834 79.9922Q62.2014 78.9922 62.2014 77.7266Q62.2014 76.4648 62.7834 75.4727Q63.3693 74.4805 64.4084 73.9219Q65.4475 73.3594 66.7443 73.3594Q68.0568 73.3594 69.0959 73.9219Q70.135 74.4805 70.717 75.4727Q71.3029 76.4648 71.3029 77.7266Q71.3029 78.9922 70.717 79.9922Q70.135 80.9922 69.0959 81.5547Q68.0568 82.1133 66.7443 82.1133ZM66.7443 80.3984Q67.8498 80.3984 68.5686 79.6641Q69.2873 78.9297 69.2873 77.7266Q69.2873 76.5273 68.5686 75.793Q67.8498 75.0547 66.7443 75.0547Q65.6389 75.0547 64.9279 75.793Q64.217 76.5273 64.217 77.7266Q64.217 78.9297 64.9279 79.6641Q65.6389 80.3984 66.7443 80.3984ZM77.9589 73.3594Q79.2089 73.3594 80.1933 73.9062Q81.1776 74.4492 81.7362 75.4414Q82.2948 76.4336 82.2948 77.7266Q82.2948 79.0234 81.7362 80.0234Q81.1776 81.0234 80.1933 81.5703Q79.2089 82.1133 77.9589 82.1133Q76.2323 82.1133 75.2245 80.9609L75.2245 85.1055L73.2245 85.1055L73.2245 73.457L75.1268 73.457L75.1268 74.5742Q75.6229 73.9688 76.3495 73.6641Q77.08 73.3594 77.9589 73.3594ZM77.7362 80.3984Q78.8417 80.3984 79.5526 79.6641Q80.2636 78.9297 80.2636 77.7266Q80.2636 76.5273 79.5526 75.793Q78.8417 75.0547 77.7362 75.0547Q77.0175 75.0547 76.4393 75.3828Q75.8651 75.7109 75.5292 76.3203Q75.1933 76.9297 75.1933 77.7266Q75.1933 78.5273 75.5292 79.1367Q75.8651 79.7422 76.4393 80.0703Q77.0175 80.3984 77.7362 80.3984ZM94.9857 73.3594Q96.5989 73.3594 97.5443 74.2969Q98.4896 75.2305 98.4896 77.1055L98.4896 82L96.4896 82L96.4896 77.3594Q96.4896 76.2383 95.9935 75.6719Q95.4974 75.1055 94.5677 75.1055Q93.5599 75.1055 92.9505 75.7695Q92.345 76.4336 92.345 77.6641L92.345 82L90.345 82L90.345 77.3594Q90.345 76.2383 89.8489 75.6719Q89.3528 75.1055 88.4232 75.1055Q87.3997 75.1055 86.7982 75.7617Q86.2005 76.4141 86.2005 77.6641L86.2005 82L84.2005 82L84.2005 73.457L86.1028 73.457L86.1028 74.543Q86.5833 73.9688 87.3021 73.6641Q88.0247 73.3594 88.9036 73.3594Q89.8646 73.3594 90.6068 73.7188Q91.3528 74.0781 91.7825 74.7852Q92.3138 74.1133 93.1458 73.7383Q93.9778 73.3594 94.9857 73.3594ZM109.16 77.7773Q109.16 77.9844 109.129 78.3672L102.425 78.3672Q102.601 79.3125 103.343 79.8633Q104.089 80.4141 105.191 80.4141Q106.601 80.4141 107.511 79.4883L108.586 80.7188Q108.007 81.4062 107.129 81.7617Q106.25 82.1133 105.144 82.1133Q103.738 82.1133 102.664 81.5547Q101.593 80.9922 101.007 79.9922Q100.425 78.9922 100.425 77.7266Q100.425 76.4805 100.992 75.4805Q101.558 74.4805 102.566 73.9219Q103.578 73.3594 104.839 73.3594Q106.089 73.3594 107.07 73.9141Q108.054 74.4648 108.605 75.4648Q109.16 76.4648 109.16 77.7773ZM104.839 74.9609Q103.879 74.9609 103.214 75.5312Q102.55 76.0977 102.41 77.0391L107.257 77.0391Q107.129 76.1133 106.472 75.5391Q105.816 74.9609 104.839 74.9609ZM115.928 73.3594Q117.545 73.3594 118.518 74.3047Q119.495 75.2461 119.495 77.1055L119.495 82L117.495 82L117.495 77.3594Q117.495 76.2383 116.967 75.6719Q116.44 75.1055 115.463 75.1055Q114.362 75.1055 113.721 75.7695Q113.081 76.4336 113.081 77.6797L113.081 82L111.081 82L111.081 73.457L112.983 73.457L112.983 74.5586Q113.479 73.9688 114.229 73.6641Q114.983 73.3594 115.928 73.3594ZM127.177 81.5352Q126.826 81.8242 126.322 81.9688Q125.818 82.1133 125.255 82.1133Q123.849 82.1133 123.08 81.3789Q122.314 80.6406 122.314 79.2305L122.314 75.1211L120.904 75.1211L120.904 73.5195L122.314 73.5195L122.314 71.5664L124.314 71.5664L124.314 73.5195L126.599 73.5195L126.599 75.1211L124.314 75.1211L124.314 79.1836Q124.314 79.8086 124.615 80.1367Q124.919 80.4648 125.498 80.4648Q126.169 80.4648 126.615 80.1133L127.177 81.5352Z" fill="#F3F3F3" fill-opacity="1.000000" fill-rule="evenodd"/>
	<rect id="Rectangle 180" y="105.000000" width="5.000000" height="5.000000" fill="#04FF14" fill-opacity="1.000000"/>
	<path id="Teamwork" d="M18.7773 103.559L15.0625 103.559L15.0625 101.801L24.5664 101.801L24.5664 103.559L20.8555 103.559L20.8555 113L18.7773 113L18.7773 103.559ZM33.0957 108.777Q33.0957 108.984 33.0645 109.367L26.3614 109.367Q26.5372 110.312 27.2793 110.863Q28.0254 111.414 29.127 111.414Q30.5372 111.414 31.4473 110.488L32.5215 111.719Q31.9434 112.406 31.0645 112.762Q30.1856 113.113 29.0801 113.113Q27.6739 113.113 26.5997 112.555Q25.5293 111.992 24.9434 110.992Q24.3614 109.992 24.3614 108.727Q24.3614 107.48 24.9278 106.48Q25.4942 105.48 26.502 104.922Q27.5137 104.359 28.7754 104.359Q30.0254 104.359 31.0059 104.914Q31.9903 105.465 32.5411 106.465Q33.0957 107.465 33.0957 108.777ZM28.7754 105.961Q27.8145 105.961 27.1504 106.531Q26.4864 107.098 26.3458 108.039L31.1934 108.039Q31.0645 107.113 30.4083 106.539Q29.752 105.961 28.7754 105.961ZM38.0382 104.359Q39.9288 104.359 40.9288 105.266Q41.9288 106.168 41.9288 107.992L41.9288 113L40.0382 113L40.0382 111.961Q39.671 112.52 38.9913 112.816Q38.3117 113.113 37.3507 113.113Q36.3937 113.113 35.671 112.785Q34.9523 112.457 34.5578 111.875Q34.1671 111.289 34.1671 110.551Q34.1671 109.398 35.0226 108.703Q35.8781 108.008 37.7218 108.008L39.9288 108.008L39.9288 107.879Q39.9288 106.984 39.3898 106.504Q38.8546 106.023 37.7999 106.023Q37.0812 106.023 36.382 106.25Q35.6867 106.473 35.2062 106.871L34.4249 105.414Q35.0968 104.902 36.0382 104.633Q36.9835 104.359 38.0382 104.359ZM37.7687 111.656Q38.5187 111.656 39.1007 111.312Q39.6867 110.969 39.9288 110.328L39.9288 109.336L37.8624 109.336Q36.1359 109.336 36.1359 110.473Q36.1359 111.016 36.5656 111.336Q36.9992 111.656 37.7687 111.656ZM55.2737 104.359Q56.8869 104.359 57.8323 105.297Q58.7776 106.23 58.7776 108.105L58.7776 113L56.7776 113L56.7776 108.359Q56.7776 107.238 56.2815 106.672Q55.7854 106.105 54.8557 106.105Q53.8479 106.105 53.2385 106.77Q52.633 107.434 52.633 108.664L52.633 113L50.633 113L50.633 108.359Q50.633 107.238 50.1369 106.672Q49.6408 106.105 48.7112 106.105Q47.6877 106.105 47.0862 106.762Q46.4885 107.414 46.4885 108.664L46.4885 113L44.4885 113L44.4885 104.457L46.3908 104.457L46.3908 105.543Q46.8713 104.969 47.5901 104.664Q48.3127 104.359 49.1916 104.359Q50.1526 104.359 50.8948 104.719Q51.6408 105.078 52.0705 105.785Q52.6018 105.113 53.4338 104.738Q54.2658 104.359 55.2737 104.359ZM74.5046 104.457L71.3523 113L69.4304 113L67.2234 107.113L64.9851 113L63.0632 113L59.9265 104.457L61.8171 104.457L64.071 110.762L66.4226 104.457L68.1023 104.457L70.407 110.793L72.7273 104.457L74.5046 104.457ZM79.4803 113.113Q78.1835 113.113 77.1444 112.555Q76.1053 111.992 75.5194 110.992Q74.9374 109.992 74.9374 108.727Q74.9374 107.465 75.5194 106.473Q76.1053 105.48 77.1444 104.922Q78.1835 104.359 79.4803 104.359Q80.7928 104.359 81.8319 104.922Q82.871 105.48 83.453 106.473Q84.0389 107.465 84.0389 108.727Q84.0389 109.992 83.453 110.992Q82.871 111.992 81.8319 112.555Q80.7928 113.113 79.4803 113.113ZM79.4803 111.398Q80.5858 111.398 81.3046 110.664Q82.0233 109.93 82.0233 108.727Q82.0233 107.527 81.3046 106.793Q80.5858 106.055 79.4803 106.055Q78.3749 106.055 77.6639 106.793Q76.953 107.527 76.953 108.727Q76.953 109.93 77.6639 110.664Q78.3749 111.398 79.4803 111.398ZM87.8629 105.703Q88.7261 104.359 90.9058 104.359L90.9058 106.266Q90.648 106.215 90.441 106.215Q89.273 106.215 88.6168 106.895Q87.9605 107.574 87.9605 108.855L87.9605 113L85.9605 113L85.9605 104.457L87.8629 104.457L87.8629 105.703ZM96.0888 109.336L94.6005 110.742L94.6005 113L92.6005 113L92.6005 101.129L94.6005 101.129L94.6005 108.297L98.745 104.457L101.143 104.457L97.5771 108.039L101.479 113L99.0497 113L96.0888 109.336Z" fill="#F3F3F3" fill-opacity="1.000000" fill-rule="evenodd"/>
</svg>
