<svg width="135.000000" height="24.000000" viewBox="0 0 135 24" fill="none" xmlns="http://www.w3.org/2000/svg" xmlns:xlink="http://www.w3.org/1999/xlink">
	<desc>
			Created with Pixso.
	</desc>
	<defs>
		<clipPath id="clip62_506">
			<rect id="arrow-right" width="24.000000" height="24.000000" transform="translate(111.000000 0.000000)" fill="white" fill-opacity="0"/>
		</clipPath>
	</defs>
	<path id="Read more" d="M10.314 18L7.59814 14.1284Q7.09277 14.168 6.80273 14.168L3.69141 14.168L3.69141 18L1.88965 18L1.88965 5.40088L6.80273 5.40088Q9.25049 5.40088 10.6523 6.56982Q12.0586 7.73877 12.0586 9.79102Q12.0586 11.25 11.3379 12.2783Q10.6216 13.3022 9.29004 13.7681L12.2739 18L10.314 18ZM6.75 12.6343Q8.45947 12.6343 9.36035 11.9004Q10.2612 11.1621 10.2612 9.79102Q10.2612 8.42432 9.36035 7.69482Q8.45947 6.96533 6.75 6.96533L3.69141 6.96533L3.69141 12.6343L6.75 12.6343ZM23.3472 13.2847Q23.3472 13.4824 23.3121 13.8076L15.5689 13.8076Q15.7315 15.0645 16.6763 15.8335Q17.6212 16.5981 19.0274 16.5981Q20.7369 16.5981 21.7784 15.4424L22.732 16.5586Q22.086 17.3145 21.1236 17.7144Q20.1612 18.1099 18.9703 18.1099Q17.4586 18.1099 16.2896 17.4902Q15.1207 16.8662 14.4791 15.75Q13.8419 14.6338 13.8419 13.2319Q13.8419 11.8433 14.4615 10.7271Q15.0855 9.61084 16.171 8.99121Q17.2608 8.37158 18.6319 8.37158Q19.9986 8.37158 21.0665 8.99121Q22.1387 9.61084 22.7408 10.7271Q23.3472 11.8433 23.3472 13.2847ZM18.6319 9.82617Q17.3882 9.82617 16.5489 10.582Q15.7139 11.3379 15.5689 12.564L21.6905 12.564Q21.5455 11.3599 20.7061 10.5952Q19.8712 9.82617 18.6319 9.82617ZM28.9428 8.37158Q30.9248 8.37158 31.9751 9.34277Q33.0298 10.314 33.0298 12.2388L33.0298 18L31.3906 18L31.3906 16.7388Q30.9599 17.4067 30.1557 17.7583Q29.3559 18.1099 28.2617 18.1099Q26.6577 18.1099 25.6953 17.3364Q24.7329 16.5586 24.7329 15.3018Q24.7329 14.0405 25.6513 13.2759Q26.5698 12.5112 28.5649 12.5112L31.3027 12.5112L31.3027 12.1685Q31.3027 11.0522 30.6523 10.459Q30.0063 9.86572 28.7451 9.86572Q27.9013 9.86572 27.0883 10.147Q26.2798 10.4238 25.7216 10.8896L25.0009 9.59326Q25.7392 9 26.7632 8.68799Q27.7915 8.37158 28.9428 8.37158ZM28.5473 16.7739Q29.5361 16.7739 30.2568 16.3345Q30.9775 15.895 31.3027 15.082L31.3027 13.7505L28.6396 13.7505Q26.4424 13.7505 26.4424 15.2271Q26.4424 15.9478 27.0005 16.3608Q27.5586 16.7739 28.5473 16.7739ZM45.2892 4.64502L45.2892 18L43.6324 18L43.6324 16.4883Q43.0567 17.2793 42.1734 17.6968Q41.2901 18.1099 40.2311 18.1099Q38.8424 18.1099 37.7437 17.499Q36.6495 16.8838 36.0255 15.7764Q35.4059 14.6689 35.4059 13.2319Q35.4059 11.7905 36.0255 10.6919Q36.6495 9.59326 37.7437 8.98242Q38.8424 8.37158 40.2311 8.37158Q41.255 8.37158 42.1163 8.7583Q42.982 9.14502 43.5621 9.90088L43.5621 4.64502L45.2892 4.64502ZM40.3761 16.5981Q41.2726 16.5981 42.0108 16.1763Q42.7491 15.75 43.1622 14.9854Q43.5797 14.2207 43.5797 13.2319Q43.5797 12.2388 43.1622 11.4741Q42.7491 10.7095 42.0108 10.2964Q41.2726 9.8833 40.3761 9.8833Q39.4576 9.8833 38.7281 10.2964Q37.9986 10.7095 37.5724 11.4741Q37.1505 12.2388 37.1505 13.2319Q37.1505 14.2207 37.5724 14.9854Q37.9986 15.75 38.7281 16.1763Q39.4576 16.5981 40.3761 16.5981ZM65.3383 8.37158Q67.1401 8.37158 68.1904 9.41748Q69.245 10.459 69.245 12.5112L69.245 18L67.518 18L67.518 12.709Q67.518 11.3203 66.8764 10.6216Q66.2392 9.91846 65.0527 9.91846Q63.7387 9.91846 62.9653 10.7402Q62.1918 11.5576 62.1918 13.0869L62.1918 18L60.4604 18L60.4604 12.709Q60.4604 11.3203 59.8232 10.6216Q59.186 9.91846 57.995 9.91846Q56.6811 9.91846 55.9076 10.7402Q55.1342 11.5576 55.1342 13.0869L55.1342 18L53.4072 18L53.4072 8.45947L55.0639 8.45947L55.0639 9.8833Q55.5824 9.14502 56.4262 8.7583Q57.2743 8.37158 58.3554 8.37158Q59.4716 8.37158 60.3329 8.81982Q61.1987 9.26807 61.6689 10.1338Q62.2094 9.30762 63.1718 8.8418Q64.1342 8.37158 65.3383 8.37158ZM76.5741 18.1099Q75.1502 18.1099 74.0164 17.4814Q72.8827 16.8486 72.2411 15.7412Q71.6039 14.6338 71.6039 13.2319Q71.6039 11.8257 72.2411 10.7183Q72.8827 9.61084 74.0164 8.99121Q75.1502 8.37158 76.5741 8.37158Q77.9935 8.37158 79.1185 8.99121Q80.2435 9.61084 80.8807 10.7183Q81.5223 11.8257 81.5223 13.2319Q81.5223 14.6338 80.8807 15.7412Q80.2435 16.8486 79.1185 17.4814Q77.9935 18.1099 76.5741 18.1099ZM76.5741 16.5981Q77.4881 16.5981 78.2176 16.1763Q78.9471 15.75 79.3602 14.9854Q79.7777 14.2207 79.7777 13.2319Q79.7777 12.2388 79.3602 11.4741Q78.9471 10.7095 78.2176 10.2964Q77.4881 9.8833 76.5741 9.8833Q75.6556 9.8833 74.9261 10.2964Q74.1966 10.7095 73.7704 11.4741Q73.3485 12.2388 73.3485 13.2319Q73.3485 14.2207 73.7704 14.9854Q74.1966 15.75 74.9261 16.1763Q75.6556 16.5981 76.5741 16.5981ZM85.5739 10.0635Q86.0221 9.23291 86.901 8.80225Q87.7843 8.37158 89.0456 8.37158L89.0456 10.0459Q88.9006 10.0239 88.6501 10.0239Q87.2438 10.0239 86.444 10.8633Q85.6442 11.6982 85.6442 13.2495L85.6442 18L83.9172 18L83.9172 8.45947L85.5739 8.45947L85.5739 10.0635ZM99.7032 13.2847Q99.7032 13.4824 99.6681 13.8076L91.9249 13.8076Q92.0875 15.0645 93.0323 15.8335Q93.9771 16.5981 95.3834 16.5981Q97.0929 16.5981 98.1344 15.4424L99.088 16.5586Q98.442 17.3145 97.4796 17.7144Q96.5172 18.1099 95.3263 18.1099Q93.8146 18.1099 92.6456 17.4902Q91.4767 16.8662 90.8351 15.75Q90.1979 14.6338 90.1979 13.2319Q90.1979 11.8433 90.8175 10.7271Q91.4415 9.61084 92.527 8.99121Q93.6168 8.37158 94.9879 8.37158Q96.3546 8.37158 97.4225 8.99121Q98.4947 9.61084 99.0968 10.7271Q99.7032 11.8433 99.7032 13.2847ZM94.9879 9.82617Q93.7442 9.82617 92.9049 10.582Q92.0699 11.3379 91.9249 12.564L98.0465 12.564Q97.9015 11.3599 97.0621 10.5952Q96.2271 9.82617 94.9879 9.82617Z" fill="#04FF14" fill-opacity="1.000000" fill-rule="evenodd"/>
	<rect id="arrow-right" width="24.000000" height="24.000000" transform="translate(111.000000 0.000000)" fill="#FFFFFF" fill-opacity="0"/>
	<g clip-path="url(#clip62_506)">
		<path id="Vector" d="M113 12L133 12" stroke="#04FF14" stroke-opacity="1.000000" stroke-width="2.000000" stroke-linejoin="round" stroke-linecap="round"/>
		<path id="Vector" d="M128 7L133 12L128 17" stroke="#04FF14" stroke-opacity="1.000000" stroke-width="2.000000" stroke-linejoin="round" stroke-linecap="round"/>
	</g>
</svg>
